<svg width="30" height="30" viewBox="0 0 30 30" fill="none" xmlns="http://www.w3.org/2000/svg">
<g clip-path="url(#clip0_1_2)">
<path d="M22 0H8C3.58172 0 0 3.58172 0 8V22C0 26.4183 3.58172 30 8 30H22C26.4183 30 30 26.4183 30 22V8C30 3.58172 26.4183 0 22 0Z" fill="white"/>
<path d="M22.8183 17.2362C23.7115 15.689 23.1814 13.7106 21.6343 12.8174C20.0871 11.9241 18.1088 12.4542 17.2155 14.0014L12.6173 21.9657C11.7241 23.5128 12.2542 25.4912 13.8013 26.3845C15.3485 27.2777 17.3269 26.7476 18.2201 25.2004L22.8183 17.2362Z" fill="#130A02"/>
<path d="M17.6354 8.12088C18.5287 6.57371 17.9986 4.59536 16.4514 3.7021C14.9042 2.80884 12.9259 3.33894 12.0326 4.88611L7.43443 12.8504C6.54117 14.3976 7.07127 16.3759 8.61844 17.2692C10.1656 18.1624 12.144 17.6323 13.0372 16.0852L17.6354 8.12088Z" fill="#130A02"/>
</g>
<defs>
<clipPath id="clip0_1_2">
<rect width="30" height="30" fill="white"/>
</clipPath>
</defs>
</svg>
