<?xml version="1.0" standalone="no"?>
<!DOCTYPE svg PUBLIC "-//W3C//DTD SVG 20010904//EN"
 "http://www.w3.org/TR/2001/REC-SVG-20010904/DTD/svg10.dtd">
<svg version="1.0" xmlns="http://www.w3.org/2000/svg"
 width="1000.000000pt" height="1000.000000pt" viewBox="0 0 1000.000000 1000.000000"
 preserveAspectRatio="xMidYMid meet">
<metadata>
Created by potrace 1.14, written by Peter Selinger 2001-2017
</metadata>
<g transform="translate(0.000000,1000.000000) scale(0.100000,-0.100000)"
fill="#000000" stroke="none">
<path d="M2340 9980 c-200 -27 -310 -52 -500 -112 -490 -156 -936 -467 -1266
-883 -43 -55 -95 -125 -114 -155 -19 -30 -37 -57 -41 -60 -3 -3 -17 -25 -31
-50 -14 -25 -41 -72 -59 -105 -162 -286 -282 -670 -316 -1013 -10 -102 -10
-5094 0 -5197 13 -128 16 -150 47 -297 38 -176 65 -266 137 -448 30 -73 119
-257 151 -310 12 -19 25 -42 29 -50 13 -28 126 -195 176 -259 250 -322 549
-569 907 -750 74 -38 176 -85 225 -104 219 -87 500 -155 720 -175 103 -9 5109
-9 5195 0 625 68 1200 344 1627 779 114 117 133 139 203 229 19 25 37 47 40
50 4 3 39 55 78 115 40 61 76 115 80 121 30 43 133 251 175 355 70 169 139
414 162 572 3 27 8 59 11 70 2 12 7 58 12 102 9 104 9 5109 0 5197 -10 86 -17
134 -25 178 -4 19 -8 42 -9 50 -8 65 -86 349 -114 415 -4 11 -18 47 -31 80
-49 132 -186 387 -274 514 -34 49 -136 183 -145 191 -3 3 -18 21 -34 40 -79
98 -234 247 -366 352 -189 151 -451 303 -675 391 -182 72 -458 144 -620 163
-33 3 -69 9 -80 12 -11 4 -1172 7 -2580 8 -2428 2 -2567 1 -2695 -16z"/>
</g>
</svg>
