<svg width="104" height="104" viewBox="0 0 104 104" fill="none" xmlns="http://www.w3.org/2000/svg">
<path d="M104 52C104 80.7188 80.7188 104 52 104C23.2812 104 0 80.7188 0 52C0 23.2812 23.2812 0 52 0C80.7188 0 104 23.2812 104 52Z" fill="#08105B"/>
<path fill-rule="evenodd" clip-rule="evenodd" d="M52 103C80.1665 103 103 80.1665 103 52C103 23.8335 80.1665 1 52 1C23.8335 1 1 23.8335 1 52C1 80.1665 23.8335 103 52 103ZM52 104C80.7188 104 104 80.7188 104 52C104 23.2812 80.7188 0 52 0C23.2812 0 0 23.2812 0 52C0 80.7188 23.2812 104 52 104Z" fill="url(#paint0_linear_10_6)"/>
<defs>
<linearGradient id="paint0_linear_10_6" x1="8.98766" y1="7.94444" x2="98.81" y2="89.064" gradientUnits="userSpaceOnUse">
<stop stop-color="#7B88FF"/>
<stop offset="0.596875" stop-color="#7BA8FF" stop-opacity="0"/>
<stop offset="1" stop-color="#7BA0FF"/>
</linearGradient>
</defs>
</svg>
