<svg width="25" height="25" viewBox="0 0 25 25" fill="none" xmlns="http://www.w3.org/2000/svg">
<path d="M25 12.5C25 19.4036 19.4036 25 12.5 25C5.59644 25 0 19.4036 0 12.5C0 5.59644 5.59644 0 12.5 0C19.4036 0 25 5.59644 25 12.5Z" fill="#08105B"/>
<path fill-rule="evenodd" clip-rule="evenodd" d="M12.5 24C18.8513 24 24 18.8513 24 12.5C24 6.14873 18.8513 1 12.5 1C6.14873 1 1 6.14873 1 12.5C1 18.8513 6.14873 24 12.5 24ZM12.5 25C19.4036 25 25 19.4036 25 12.5C25 5.59644 19.4036 0 12.5 0C5.59644 0 0 5.59644 0 12.5C0 19.4036 5.59644 25 12.5 25Z" fill="url(#paint0_linear_4_5)"/>
<defs>
<linearGradient id="paint0_linear_4_5" x1="2.16049" y1="1.90972" x2="23.7524" y2="21.4096" gradientUnits="userSpaceOnUse">
<stop stop-color="#7B88FF"/>
<stop offset="0.596875" stop-color="#7BA8FF" stop-opacity="0"/>
<stop offset="1" stop-color="#7BA0FF"/>
</linearGradient>
</defs>
</svg>
