<svg width="25" height="26" viewBox="0 0 25 26" fill="none" xmlns="http://www.w3.org/2000/svg">
<path d="M25 13C25 19.9036 19.4036 25.5 12.5 25.5C5.59644 25.5 0 19.9036 0 13C0 6.09644 5.59644 0.5 12.5 0.5C19.4036 0.5 25 6.09644 25 13Z" fill="#08105B"/>
<path fill-rule="evenodd" clip-rule="evenodd" d="M12.5 24.5C18.8513 24.5 24 19.3513 24 13C24 6.64873 18.8513 1.5 12.5 1.5C6.14873 1.5 1 6.64873 1 13C1 19.3513 6.14873 24.5 12.5 24.5ZM12.5 25.5C19.4036 25.5 25 19.9036 25 13C25 6.09644 19.4036 0.5 12.5 0.5C5.59644 0.5 0 6.09644 0 13C0 19.9036 5.59644 25.5 12.5 25.5Z" fill="url(#paint0_linear_65_63)"/>
<path fill-rule="evenodd" clip-rule="evenodd" d="M19.7071 7.79289C20.0976 8.18342 20.0976 8.81658 19.7071 9.20711L11.4571 17.4571C11.0666 17.8476 10.4334 17.8476 10.0429 17.4571L6.29289 13.7071C5.90237 13.3166 5.90237 12.6834 6.29289 12.2929C6.68342 11.9024 7.31658 11.9024 7.70711 12.2929L10.75 15.3358L18.2929 7.79289C18.6834 7.40237 19.3166 7.40237 19.7071 7.79289Z" fill="white"/>
<defs>
<linearGradient id="paint0_linear_65_63" x1="2.16049" y1="2.40972" x2="23.7524" y2="21.9096" gradientUnits="userSpaceOnUse">
<stop stop-color="#7B88FF"/>
<stop offset="0.596875" stop-color="#7BA8FF" stop-opacity="0"/>
<stop offset="1" stop-color="#7BA0FF"/>
</linearGradient>
</defs>
</svg>
