<?xml version="1.0" encoding="utf-8"?><svg viewBox="0 0 104 104" xmlns="http://www.w3.org/2000/svg" xmlns:xlink="http://www.w3.org/1999/xlink"><style>:root>svg{display:none}:root>svg:target{display:block}</style><svg viewBox="0 0 32 32" id="arrow-play" xmlns="http://www.w3.org/2000/svg"><path fill-rule="evenodd" clip-rule="evenodd" d="M4.52 1.122a1 1 0 011.02.037l22.167 14.25a1 1 0 010 1.682L5.541 31.341A1 1 0 014 30.5V2a1 1 0 01.52-.878zM6 3.832v24.836L25.317 16.25 6 3.832z"/></svg><svg viewBox="0 0 24 24" id="arrow-type-1" xmlns="http://www.w3.org/2000/svg"><path fill-rule="evenodd" clip-rule="evenodd" d="M20 12a1 1 0 01-1 1H5a1 1 0 110-2h14a1 1 0 011 1z"/><path fill-rule="evenodd" clip-rule="evenodd" d="M11.293 19.707a1 1 0 010-1.414L17.586 12l-6.293-6.293a1 1 0 011.414-1.414l7 7a1 1 0 010 1.414l-7 7a1 1 0 01-1.414 0z"/></svg><svg fill="none" viewBox="0 0 25 26" id="dot" xmlns="http://www.w3.org/2000/svg"><path d="M25 13c0 6.904-5.596 12.5-12.5 12.5S0 19.904 0 13 5.596.5 12.5.5 25 6.096 25 13z" fill="#08105B"/><path fill-rule="evenodd" clip-rule="evenodd" d="M12.5 24.5C18.851 24.5 24 19.351 24 13S18.851 1.5 12.5 1.5 1 6.649 1 13s5.149 11.5 11.5 11.5zm0 1C19.404 25.5 25 19.904 25 13S19.404.5 12.5.5 0 6.096 0 13s5.596 12.5 12.5 12.5z" fill="url(#cpaint0_linear_65_63)"/><path fill-rule="evenodd" clip-rule="evenodd" d="M19.707 7.793a1 1 0 010 1.414l-8.25 8.25a1 1 0 01-1.414 0l-3.75-3.75a1 1 0 111.414-1.414l3.043 3.043 7.543-7.543a1 1 0 011.414 0z" fill="#fff"/><defs><linearGradient id="cpaint0_linear_65_63" x1="2.16" y1="2.41" x2="23.752" y2="21.91" gradientUnits="userSpaceOnUse"><stop stop-color="#7B88FF"/><stop offset=".597" stop-color="#7BA8FF" stop-opacity="0"/><stop offset="1" stop-color="#7BA0FF"/></linearGradient></defs></svg><svg fill="none" viewBox="0 0 104 104" id="dot-2" xmlns="http://www.w3.org/2000/svg"><path d="M104 52c0 28.719-23.281 52-52 52S0 80.719 0 52 23.281 0 52 0s52 23.281 52 52z" fill="#08105B"/><path fill-rule="evenodd" clip-rule="evenodd" d="M52 103c28.166 0 51-22.834 51-51S80.166 1 52 1 1 23.834 1 52s22.834 51 51 51zm0 1c28.719 0 52-23.281 52-52S80.719 0 52 0 0 23.281 0 52s23.281 52 52 52z" fill="url(#dpaint0_linear_10_6)"/><defs><linearGradient id="dpaint0_linear_10_6" x1="8.988" y1="7.944" x2="98.81" y2="89.064" gradientUnits="userSpaceOnUse"><stop stop-color="#7B88FF"/><stop offset=".597" stop-color="#7BA8FF" stop-opacity="0"/><stop offset="1" stop-color="#7BA0FF"/></linearGradient></defs></svg><svg viewBox="0 0 32 32" id="menu-close" xmlns="http://www.w3.org/2000/svg"><path fill-rule="evenodd" clip-rule="evenodd" d="M9.293 9.293a1 1 0 011.414 0l12 12a1 1 0 01-1.414 1.414l-12-12a1 1 0 010-1.414z"/><path fill-rule="evenodd" clip-rule="evenodd" d="M22.707 9.293a1 1 0 010 1.414l-12 12a1 1 0 11-1.414-1.414l12-12a1 1 0 011.414 0z"/></svg><svg viewBox="0 0 32 32" id="menu-open" xmlns="http://www.w3.org/2000/svg"><path d="M5.333 24h21.334C27.4 24 28 23.4 28 22.667c0-.734-.6-1.334-1.333-1.334H5.333c-.733 0-1.333.6-1.333 1.334C4 23.4 4.6 24 5.333 24zm0-6.667h21.334c.733 0 1.333-.6 1.333-1.333s-.6-1.333-1.333-1.333H5.333C4.6 14.667 4 15.267 4 16s.6 1.333 1.333 1.333zM4 9.333c0 .734.6 1.334 1.333 1.334h21.334c.733 0 1.333-.6 1.333-1.334C28 8.6 27.4 8 26.667 8H5.333C4.6 8 4 8.6 4 9.333z"/></svg><svg fill="none" viewBox="0 0 28 19" id="star" xmlns="http://www.w3.org/2000/svg"><path d="M10 0l3.09 6.253L20 7.263l-5 4.864L16.18 19 10 15.753 3.82 19 5 12.127 0 7.262l6.91-1.009L10 0z" fill="#fff"/></svg><svg viewBox="0 0 24 24" id="telegram" xmlns="http://www.w3.org/2000/svg"><path d="M17.782 6.143L4.493 11.295c-.535.24-.716.72-.13.98l3.41 1.09 8.243-5.121c.45-.322.911-.236.515.118l-7.08 6.443-.223 2.727c.206.421.584.423.824.214l1.959-1.863 3.355 2.525c.779.463 1.203.164 1.37-.686l2.2-10.472c.229-1.046-.16-1.507-1.154-1.107z"/></svg></svg>